<svg width="32" height="32" viewBox="0 0 32 32" fill="none" xmlns="http://www.w3.org/2000/svg">
  <rect width="32" height="32" rx="6" fill="#2563eb"/>
  <path d="M8 6H24C25.1046 6 26 6.89543 26 8V12C26 13.1046 25.1046 14 24 14H16L12 18V14H8C6.89543 14 6 13.1046 6 12V8C6 6.89543 6.89543 6 8 6Z" fill="white"/>
  <circle cx="11" cy="10" r="1" fill="#2563eb"/>
  <circle cx="16" cy="10" r="1" fill="#2563eb"/>
  <circle cx="21" cy="10" r="1" fill="#2563eb"/>
  <path d="M9 20H23C24.1046 20 25 20.8954 25 22V24C25 25.1046 24.1046 26 23 26H9C7.89543 26 7 25.1046 7 24V22C7 20.8954 7.89543 20 9 20Z" fill="white"/>
  <rect x="10" y="22" width="12" height="2" rx="1" fill="#2563eb"/>
</svg>