<svg width="40" height="40" viewBox="0 0 40 40" fill="none" xmlns="http://www.w3.org/2000/svg">
  <rect width="40" height="40" rx="8" fill="url(#gradient1)"/>
  <path d="M12 10H28C29.1046 10 30 10.8954 30 12V16C30 17.1046 29.1046 18 28 18H20L16 22V18H12C10.8954 18 10 17.1046 10 16V12C10 10.8954 10.8954 10 12 10Z" fill="white"/>
  <circle cx="15" cy="14" r="1.5" fill="#2563eb"/>
  <circle cx="20" cy="14" r="1.5" fill="#2563eb"/>
  <circle cx="25" cy="14" r="1.5" fill="#2563eb"/>
  <path d="M13 25H27C28.1046 25 29 25.8954 29 27V29C29 30.1046 28.1046 31 27 31H13C11.8954 31 11 30.1046 11 29V27C11 25.8954 11.8954 25 13 25Z" fill="white"/>
  <rect x="14" y="27" width="12" height="2" rx="1" fill="#2563eb"/>
  <defs>
    <linearGradient id="gradient1" x1="0" y1="0" x2="40" y2="40" gradientUnits="userSpaceOnUse">
      <stop stop-color="#2563eb"/>
      <stop offset="1" stop-color="#1d4ed8"/>
    </linearGradient>
  </defs>
</svg>