<svg width="20" height="20" viewBox="0 0 20 20" fill="none" xmlns="http://www.w3.org/2000/svg">
  <path d="M10 1.66667C5.40834 1.66667 1.66667 5.40834 1.66667 10C1.66667 13.6833 4.05 16.8167 7.36667 17.9167C7.78334 17.9917 7.91667 17.7333 7.91667 17.5083V15.8583C5.51667 16.3583 5.03334 14.7583 5.03334 14.7583C4.65 13.8 4.08334 13.5417 4.08334 13.5417C3.28334 13.025 4.14167 13.0333 4.14167 13.0333C5.025 13.0917 5.46667 13.9 5.46667 13.9C6.25 15.225 7.54167 14.8417 7.94167 14.6333C8.01667 14.075 8.26667 13.6917 8.54167 13.4917C6.79167 13.2917 4.95 12.5583 4.95 9.50834C4.95 8.59167 5.28334 7.84167 5.48334 7.25834C5.39167 7.05834 5.06667 6.18334 5.575 5.00834C5.575 5.00834 6.31667 4.78334 7.91667 5.875C8.61667 5.69167 9.36667 5.6 10.1167 5.6C10.8667 5.6 11.6167 5.69167 12.3167 5.875C13.9167 4.78334 14.6583 5.00834 14.6583 5.00834C15.1667 6.18334 14.8417 7.05834 14.75 7.25834C14.95 7.84167 15.2833 8.59167 15.2833 9.50834C15.2833 12.5667 13.4417 13.2917 11.6917 13.4917C12.0333 13.7917 12.3167 14.3833 12.3167 15.2833V17.5083C12.3167 17.7333 12.45 17.9917 12.875 17.9167C16.1917 16.8167 18.575 13.6833 18.575 10C18.575 5.40834 14.8333 1.66667 10.1667 1.66667H10Z" fill="currentColor"/>
</svg>