<svg width="32" height="32" viewBox="0 0 32 32" fill="none" xmlns="http://www.w3.org/2000/svg">
  <path d="M25.6569 6.34315C26.0474 6.73367 26.0474 7.36683 25.6569 7.75736L23.1716 10.2426C22.7811 10.6332 22.1479 10.6332 21.7574 10.2426C21.3668 9.85211 21.3668 9.21895 21.7574 8.82843L24.2426 6.34315C24.6332 5.95262 25.2663 5.95262 25.6569 6.34315Z" fill="white"/>
  <path d="M28 4C28.5523 4 29 4.44772 29 5V9C29 9.55228 28.5523 10 28 10H24C23.4477 10 23 9.55228 23 9C23 8.44772 23.4477 8 24 8H27V5C27 4.44772 27.4477 4 28 4Z" fill="white"/>
  <path d="M5 12C5.55228 12 6 12.4477 6 13V24C6 24.5523 6.44772 25 7 25H26C26.5523 25 27 25.4477 27 26C27 26.5523 26.5523 27 26 27H7C5.34315 27 4 25.6569 4 24V13C4 12.4477 4.44772 12 5 12Z" fill="white"/>
  <path d="M9 23C9.55228 23 10 22.5523 10 22V18C10 17.4477 9.55228 17 9 17C8.44772 17 8 17.4477 8 18V22C8 22.5523 8.44772 23 9 23Z" fill="white"/>
  <path d="M13 23C13.5523 23 14 22.5523 14 22V15C14 14.4477 13.5523 14 13 14C12.4477 14 12 14.4477 12 15V22C12 22.5523 12.4477 23 13 23Z" fill="white"/>
  <path d="M17 23C17.5523 23 18 22.5523 18 22V12C18 11.4477 17.5523 11 17 11C16.4477 11 16 11.4477 16 12V22C16 22.5523 16.4477 23 17 23Z" fill="white"/>
  <path d="M21 23C21.5523 23 22 22.5523 22 22V10C22 9.44772 21.5523 9 21 9C20.4477 9 20 9.44772 20 10V22C20 22.5523 20.4477 23 21 23Z" fill="white"/>
</svg>