<svg width="32" height="32" viewBox="0 0 32 32" fill="none" xmlns="http://www.w3.org/2000/svg">
  <path d="M4 6C4 4.89543 4.89543 4 6 4H26C27.1046 4 28 4.89543 28 6V20C28 21.1046 27.1046 22 26 22H6C4.89543 22 4 21.1046 4 20V6ZM6 6V20H26V6H6Z" fill="currentColor"/>
  <path d="M8 8C8 7.44772 8.44772 7 9 7H11C11.5523 7 12 7.44772 12 8V10C12 10.5523 11.5523 11 11 11H9C8.44772 11 8 10.5523 8 10V8Z" fill="currentColor"/>
  <path d="M14 8C14 7.44772 14.4477 7 15 7H23C23.5523 7 24 7.44772 24 8C24 8.55228 23.5523 9 23 9H15C14.4477 9 14 8.55228 14 8Z" fill="currentColor"/>
  <path d="M9 13C8.44772 13 8 13.4477 8 14C8 14.5523 8.44772 15 9 15H17C17.5523 15 18 14.5523 18 14C18 13.4477 17.5523 13 17 13H9Z" fill="currentColor"/>
  <path d="M8 18C8 17.4477 8.44772 17 9 17H13C13.5523 17 14 17.4477 14 18C14 18.5523 13.5523 19 13 19H9C8.44772 19 8 18.5523 8 18Z" fill="currentColor"/>
  <path d="M18 26C18.5523 26 19 25.5523 19 25V24H20C20.5523 24 21 23.5523 21 23C21 22.4477 20.5523 22 20 22H19V21C19 20.4477 18.5523 20 18 20C17.4477 20 17 20.4477 17 21V22H16C15.4477 22 15 22.4477 15 23C15 23.5523 15.4477 24 16 24H17V25C17 25.5523 17.4477 26 18 26Z" fill="currentColor"/>
  <path d="M8 26C8.55228 26 9 25.5523 9 25C9 24.4477 8.55228 24 8 24C7.44772 24 7 24.4477 7 25C7 25.5523 7.44772 26 8 26Z" fill="currentColor"/>
  <path d="M13 25C13 25.5523 12.5523 26 12 26C11.4477 26 11 25.5523 11 25C11 24.4477 11.4477 24 12 24C12.5523 24 13 24.4477 13 25Z" fill="currentColor"/>
  <path d="M25 26C25.5523 26 26 25.5523 26 25C26 24.4477 25.5523 24 25 24C24.4477 24 24 24.4477 24 25C24 25.5523 24.4477 26 25 26Z" fill="currentColor"/>
</svg>