<svg width="20" height="20" viewBox="0 0 20 20" fill="none" xmlns="http://www.w3.org/2000/svg">
  <path d="M2.00031 3.02857C2.00031 2.73043 2.11875 2.44457 2.33017 2.23315C2.54159 2.02173 2.82746 1.90329 3.12559 1.90329H5.17559C5.41887 1.90329 5.64859 2.00972 5.80031 2.19572L7.82831 4.85329C8.01831 5.08829 8.08031 5.40172 7.99631 5.69486L7.42031 7.52372C7.38346 7.64372 7.39031 7.77286 7.44031 7.88829C7.85431 8.77772 8.72031 10.0777 9.72031 11.0777C10.7203 12.0777 12.0203 12.9437 12.9098 13.3577C13.0251 13.4077 13.1543 13.4146 13.2743 13.3777L15.1031 12.8017C15.3963 12.7177 15.7098 12.7797 15.9448 12.9697L18.6023 14.9977C18.7883 15.1494 18.8948 15.3791 18.8948 15.6224V17.6724C18.8948 17.9706 18.7763 18.2564 18.5649 18.4678C18.3535 18.6792 18.0676 18.7977 17.7695 18.7977H16.8945C9.15059 18.7977 2.89516 12.5423 2.89516 4.79829V3.92329C2.89516 3.73543 2.89516 3.38029 2.00031 3.02857Z" fill="currentColor"/>
</svg>