<svg width="32" height="32" viewBox="0 0 32 32" fill="none" xmlns="http://www.w3.org/2000/svg">
  <path d="M16 2C16.2652 2 16.5196 2.10536 16.7071 2.29289L20.7071 6.29289C20.8946 6.48043 21 6.73478 21 7V10C21 13.3137 18.3137 16 15 16H13V14H15C17.2091 14 19 12.2091 19 10V7.41421L16 4.41421L13 7.41421V10C13 10.5523 12.5523 11 12 11C11.4477 11 11 10.5523 11 10V7C11 6.73478 11.1054 6.48043 11.2929 6.29289L15.2929 2.29289C15.4804 2.10536 15.7348 2 16 2Z" fill="white"/>
  <path d="M16 30C16.2761 30 16.5294 29.8683 16.6816 29.6475C18.7576 26.7483 21 22.9856 21 19V13C21 12.4477 20.5523 12 20 12H12C11.4477 12 11 12.4477 11 13V19C11 22.9856 13.2424 26.7483 15.3184 29.6475C15.4706 29.8683 15.7239 30 16 30ZM13 14H19V19C19 22.1144 17.2424 25.2517 15.7 27.622C14.1576 25.2517 13 22.1144 13 19V14Z" fill="white"/>
  <path d="M16 22C16.5523 22 17 21.5523 17 21V17C17 16.4477 16.5523 16 16 16C15.4477 16 15 16.4477 15 17V21C15 21.5523 15.4477 22 16 22Z" fill="white"/>
  <circle cx="16" cy="24" r="1" fill="white"/>
</svg>