<svg width="32" height="32" viewBox="0 0 32 32" fill="none" xmlns="http://www.w3.org/2000/svg">
  <path d="M26.7071 5.29289C27.0976 5.68342 27.0976 6.31658 26.7071 6.70711L24.7071 8.70711C24.3166 9.09763 23.6834 9.09763 23.2929 8.70711C22.9024 8.31658 22.9024 7.68342 23.2929 7.29289L25.2929 5.29289C25.6834 4.90237 26.3166 4.90237 26.7071 5.29289Z" fill="white"/>
  <path d="M21.8787 9.12132C22.2692 9.51184 22.2692 10.145 21.8787 10.5355L19.8787 12.5355C19.4882 12.9261 18.855 12.9261 18.4645 12.5355C18.074 12.145 18.074 11.5118 18.4645 11.1213L20.4645 9.12132C20.855 8.7308 21.4882 8.7308 21.8787 9.12132Z" fill="white"/>
  <path d="M8.70711 18.2929C9.09763 18.6834 9.09763 19.3166 8.70711 19.7071L6.70711 21.7071C6.31658 22.0976 5.68342 22.0976 5.29289 21.7071C4.90237 21.3166 4.90237 20.6834 5.29289 20.2929L7.29289 18.2929C7.68342 17.9024 8.31658 17.9024 8.70711 18.2929Z" fill="white"/>
  <path d="M12.5355 22.1213C12.9261 22.5118 12.9261 23.145 12.5355 23.5355L10.5355 25.5355C10.145 25.9261 9.51184 25.9261 9.12132 25.5355C8.7308 25.145 8.7308 24.5118 9.12132 24.1213L11.1213 22.1213C11.5118 21.7308 12.145 21.7308 12.5355 22.1213Z" fill="white"/>
  <path d="M20.6068 11.3932L11.3932 20.6068C10.4379 21.5621 8.93914 21.5621 7.98382 20.6068L6.39314 19.0161C5.43783 18.0608 5.43783 16.562 6.39314 15.6067L15.6067 6.39314C16.562 5.43783 18.0608 5.43783 19.0161 6.39314L20.6068 7.98382C21.5621 8.93914 21.5621 10.4379 20.6068 11.3932Z" fill="white"/>
  <circle cx="16" cy="16" r="2" fill="currentColor"/>
</svg>